<svg id="visual" viewBox="0 0 900 600" width="900" height="600" xmlns="http://www.w3.org/2000/svg" xmlns:xlink="http://www.w3.org/1999/xlink" version="1.1"><rect x="0" y="0" width="900" height="600" fill="#ffffff"></rect><path d="M93 0L342 0L342 33L205 33L205 67L168 67L168 100L348 100L348 133L323 133L323 167L141 167L141 200L239 200L239 233L197 233L197 267L355 267L355 300L190 300L190 333L270 333L270 367L213 367L213 400L269 400L269 433L348 433L348 467L330 467L330 500L321 500L321 533L109 533L109 567L139 567L139 600L0 600L0 567L0 567L0 533L0 533L0 500L0 500L0 467L0 467L0 433L0 433L0 400L0 400L0 367L0 367L0 333L0 333L0 300L0 300L0 267L0 267L0 233L0 233L0 200L0 200L0 167L0 167L0 133L0 133L0 100L0 100L0 67L0 67L0 33L0 33L0 0L0 0Z" fill="#0fe2f7"></path><path d="M293 0L149 0L149 33L162 33L162 67L160 67L160 100L103 100L103 133L262 133L262 167L221 167L221 200L138 200L138 233L241 233L241 267L146 267L146 300L91 300L91 333L153 333L153 367L197 367L197 400L119 400L119 433L307 433L307 467L123 467L123 500L190 500L190 533L146 533L146 567L150 567L150 600L0 600L0 567L0 567L0 533L0 533L0 500L0 500L0 467L0 467L0 433L0 433L0 400L0 400L0 367L0 367L0 333L0 333L0 300L0 300L0 267L0 267L0 233L0 233L0 200L0 200L0 167L0 167L0 133L0 133L0 100L0 100L0 67L0 67L0 33L0 33L0 0L0 0Z" fill="#00d6fc"></path><path d="M84 0L225 0L225 33L190 33L190 67L219 67L219 100L102 100L102 133L137 133L137 167L105 167L105 200L195 200L195 233L217 233L217 267L143 267L143 300L234 300L234 333L157 333L157 367L110 367L110 400L189 400L189 433L216 433L216 467L223 467L223 500L122 500L122 533L125 533L125 567L106 567L106 600L0 600L0 567L0 567L0 533L0 533L0 500L0 500L0 467L0 467L0 433L0 433L0 400L0 400L0 367L0 367L0 333L0 333L0 300L0 300L0 267L0 267L0 233L0 233L0 200L0 200L0 167L0 167L0 133L0 133L0 100L0 100L0 67L0 67L0 33L0 33L0 0L0 0Z" fill="#00c9ff"></path><path d="M147 0L166 0L166 33L209 33L209 67L136 67L136 100L88 100L88 133L100 133L100 167L160 167L160 200L111 200L111 233L95 233L95 267L93 267L93 300L218 300L218 333L122 333L122 367L69 367L69 400L116 400L116 433L162 433L162 467L72 467L72 500L58 500L58 533L183 533L183 567L126 567L126 600L0 600L0 567L0 567L0 533L0 533L0 500L0 500L0 467L0 467L0 433L0 433L0 400L0 400L0 367L0 367L0 333L0 333L0 300L0 300L0 267L0 267L0 233L0 233L0 200L0 200L0 167L0 167L0 133L0 133L0 100L0 100L0 67L0 67L0 33L0 33L0 0L0 0Z" fill="#0dc4ff"></path><path d="M55 0L84 0L84 33L141 33L141 67L177 67L177 100L92 100L92 133L155 133L155 167L174 167L174 200L111 200L111 233L57 233L57 267L118 267L118 300L62 300L62 333L73 333L73 367L106 367L106 400L165 400L165 433L133 433L133 467L96 467L96 500L77 500L77 533L49 533L49 567L52 567L52 600L0 600L0 567L0 567L0 533L0 533L0 500L0 500L0 467L0 467L0 433L0 433L0 400L0 400L0 367L0 367L0 333L0 333L0 300L0 300L0 267L0 267L0 233L0 233L0 200L0 200L0 167L0 167L0 133L0 133L0 100L0 100L0 67L0 67L0 33L0 33L0 0L0 0Z" fill="#00c9ff"></path><path d="M86 0L122 0L122 33L53 33L53 67L84 67L84 100L61 100L61 133L43 133L43 167L44 167L44 200L35 200L35 233L110 233L110 267L88 267L88 300L48 300L48 333L102 333L102 367L39 367L39 400L69 400L69 433L97 433L97 467L117 467L117 500L99 500L99 533L122 533L122 567L123 567L123 600L0 600L0 567L0 567L0 533L0 533L0 500L0 500L0 467L0 467L0 433L0 433L0 400L0 400L0 367L0 367L0 333L0 333L0 300L0 300L0 267L0 267L0 233L0 233L0 200L0 200L0 167L0 167L0 133L0 133L0 100L0 100L0 67L0 67L0 33L0 33L0 0L0 0Z" fill="#00d6fc"></path><path d="M81 0L55 0L55 33L78 33L78 67L44 67L44 100L58 100L58 133L36 133L36 167L77 167L77 200L89 200L89 233L38 233L38 267L48 267L48 300L50 300L50 333L80 333L80 367L50 367L50 400L49 400L49 433L80 433L80 467L57 467L57 500L66 500L66 533L34 533L34 567L55 567L55 600L0 600L0 567L0 567L0 533L0 533L0 500L0 500L0 467L0 467L0 433L0 433L0 400L0 400L0 367L0 367L0 333L0 333L0 300L0 300L0 267L0 267L0 233L0 233L0 200L0 200L0 167L0 167L0 133L0 133L0 100L0 100L0 67L0 67L0 33L0 33L0 0L0 0Z" fill="#0fe2f7"></path></svg>