<svg id="visual" viewBox="0 0 960 540" width="960" height="540" xmlns="http://www.w3.org/2000/svg" xmlns:xlink="http://www.w3.org/1999/xlink" version="1.1"><rect x="0" y="0" width="960" height="540" fill="#FFFFFF"></rect><path d="M0 72L22.8 74.5C45.7 77 91.3 82 137 85.7C182.7 89.3 228.3 91.7 274 108.8C319.7 126 365.3 158 411.2 155.3C457 152.7 503 115.3 548.8 113.2C594.7 111 640.3 144 686 155.5C731.7 167 777.3 157 823 152C868.7 147 914.3 147 937.2 147L960 147L960 0L937.2 0C914.3 0 868.7 0 823 0C777.3 0 731.7 0 686 0C640.3 0 594.7 0 548.8 0C503 0 457 0 411.2 0C365.3 0 319.7 0 274 0C228.3 0 182.7 0 137 0C91.3 0 45.7 0 22.8 0L0 0Z" fill="#0BB0F2" stroke-linecap="round" stroke-linejoin="miter"></path></svg>