<svg id="visual" viewBox="0 0 900 600" width="900" height="600" xmlns="http://www.w3.org/2000/svg" xmlns:xlink="http://www.w3.org/1999/xlink" version="1.1"><rect x="0" y="0" width="900" height="600" fill="#ffffff"></rect><path d="M667 600L693 600L693 567L544 567L544 533L746 533L746 500L787 500L787 467L778 467L778 433L777 433L777 400L771 400L771 367L734 367L734 333L699 333L699 300L779 300L779 267L811 267L811 233L600 233L600 200L809 200L809 167L695 167L695 133L679 133L679 100L542 100L542 67L675 67L675 33L810 33L810 0L900 0L900 33L900 33L900 67L900 67L900 100L900 100L900 133L900 133L900 167L900 167L900 200L900 200L900 233L900 233L900 267L900 267L900 300L900 300L900 333L900 333L900 367L900 367L900 400L900 400L900 433L900 433L900 467L900 467L900 500L900 500L900 533L900 533L900 567L900 567L900 600L900 600Z" fill="#f7770f"></path><path d="M795 600L756 600L756 567L670 567L670 533L780 533L780 500L661 500L661 467L694 467L694 433L693 433L693 400L620 400L620 367L758 367L758 333L595 333L595 300L810 300L810 267L766 267L766 233L689 233L689 200L720 200L720 167L620 167L620 133L725 133L725 100L715 100L715 67L715 67L715 33L633 33L633 0L900 0L900 33L900 33L900 67L900 67L900 100L900 100L900 133L900 133L900 167L900 167L900 200L900 200L900 233L900 233L900 267L900 267L900 300L900 300L900 333L900 333L900 367L900 367L900 400L900 400L900 433L900 433L900 467L900 467L900 500L900 500L900 533L900 533L900 567L900 567L900 600L900 600Z" fill="#ff72c7"></path><path d="M788 600L691 600L691 567L672 567L672 533L798 533L798 500L671 500L671 467L829 467L829 433L670 433L670 400L762 400L762 367L670 367L670 333L695 333L695 300L643 300L643 267L789 267L789 233L817 233L817 200L804 200L804 167L786 167L786 133L730 133L730 100L699 100L699 67L730 67L730 33L779 33L779 0L900 0L900 33L900 33L900 67L900 67L900 100L900 100L900 133L900 133L900 167L900 167L900 200L900 200L900 233L900 233L900 267L900 267L900 300L900 300L900 333L900 333L900 367L900 367L900 400L900 400L900 433L900 433L900 467L900 467L900 500L900 500L900 533L900 533L900 567L900 567L900 600L900 600Z" fill="#68b5ff"></path><path d="M703 600L725 600L725 567L730 567L730 533L739 533L739 500L708 500L708 467L735 467L735 433L842 433L842 400L686 400L686 367L690 367L690 333L698 333L698 300L750 300L750 267L736 267L736 233L699 233L699 200L831 200L831 167L713 167L713 133L767 133L767 100L749 100L749 67L812 67L812 33L719 33L719 0L900 0L900 33L900 33L900 67L900 67L900 100L900 100L900 133L900 133L900 167L900 167L900 200L900 200L900 233L900 233L900 267L900 267L900 300L900 300L900 333L900 333L900 367L900 367L900 400L900 400L900 433L900 433L900 467L900 467L900 500L900 500L900 533L900 533L900 567L900 567L900 600L900 600Z" fill="#0dc4ff"></path><path d="M725 600L779 600L779 567L756 567L756 533L800 533L800 500L827 500L827 467L731 467L731 433L827 433L827 400L769 400L769 367L805 367L805 333L779 333L779 300L767 300L767 267L756 267L756 233L828 233L828 200L848 200L848 167L727 167L727 133L749 133L749 100L746 100L746 67L757 67L757 33L798 33L798 0L900 0L900 33L900 33L900 67L900 67L900 100L900 100L900 133L900 133L900 167L900 167L900 200L900 200L900 233L900 233L900 267L900 267L900 300L900 300L900 333L900 333L900 367L900 367L900 400L900 400L900 433L900 433L900 467L900 467L900 500L900 500L900 533L900 533L900 567L900 567L900 600L900 600Z" fill="#68b5ff"></path><path d="M844 600L808 600L808 567L771 567L771 533L856 533L856 500L810 500L810 467L837 467L837 433L828 433L828 400L808 400L808 367L794 367L794 333L811 333L811 300L773 300L773 267L769 267L769 233L850 233L850 200L854 200L854 167L849 167L849 133L782 133L782 100L770 100L770 67L819 67L819 33L838 33L838 0L900 0L900 33L900 33L900 67L900 67L900 100L900 100L900 133L900 133L900 167L900 167L900 200L900 200L900 233L900 233L900 267L900 267L900 300L900 300L900 333L900 333L900 367L900 367L900 400L900 400L900 433L900 433L900 467L900 467L900 500L900 500L900 533L900 533L900 567L900 567L900 600L900 600Z" fill="#ff72c7"></path><path d="M839 600L831 600L831 567L845 567L845 533L849 533L849 500L825 500L825 467L832 467L832 433L870 433L870 400L817 400L817 367L825 367L825 333L830 333L830 300L823 300L823 267L850 267L850 233L855 233L855 200L874 200L874 167L857 167L857 133L829 133L829 100L827 100L827 67L870 67L870 33L838 33L838 0L900 0L900 33L900 33L900 67L900 67L900 100L900 100L900 133L900 133L900 167L900 167L900 200L900 200L900 233L900 233L900 267L900 267L900 300L900 300L900 333L900 333L900 367L900 367L900 400L900 400L900 433L900 433L900 467L900 467L900 500L900 500L900 533L900 533L900 567L900 567L900 600L900 600Z" fill="#f7770f"></path></svg>