<svg id="visual" viewBox="0 0 900 600" width="900" height="600" xmlns="http://www.w3.org/2000/svg" xmlns:xlink="http://www.w3.org/1999/xlink" version="1.1"><rect x="0" y="0" width="900" height="600" fill="#ffffff"></rect><path d="M166 0L256 0L256 33L185 33L185 67L237 67L237 100L177 100L177 133L215 133L215 167L190 167L190 200L171 200L171 233L193 233L193 267L257 267L257 300L262 300L262 333L238 333L238 367L170 367L170 400L226 400L226 433L249 433L249 467L240 467L240 500L250 500L250 533L260 533L260 567L170 567L170 600L0 600L0 567L0 567L0 533L0 533L0 500L0 500L0 467L0 467L0 433L0 433L0 400L0 400L0 367L0 367L0 333L0 333L0 300L0 300L0 267L0 267L0 233L0 233L0 200L0 200L0 167L0 167L0 133L0 133L0 100L0 100L0 67L0 67L0 33L0 33L0 0L0 0Z" fill="#4facf7"></path><path d="M189 0L158 0L158 33L220 33L220 67L146 67L146 100L176 100L176 133L185 133L185 167L204 167L204 200L146 200L146 233L131 233L131 267L172 267L172 300L179 300L179 333L167 333L167 367L212 367L212 400L215 400L215 433L171 433L171 467L147 467L147 500L142 500L142 533L216 533L216 567L117 567L117 600L0 600L0 567L0 567L0 533L0 533L0 500L0 500L0 467L0 467L0 433L0 433L0 400L0 400L0 367L0 367L0 333L0 333L0 300L0 300L0 267L0 267L0 233L0 233L0 200L0 200L0 167L0 167L0 133L0 133L0 100L0 100L0 67L0 67L0 33L0 33L0 0L0 0Z" fill="#9a9afa"></path><path d="M104 0L91 0L91 33L97 33L97 67L107 67L107 100L188 100L188 133L158 133L158 167L100 167L100 200L151 200L151 233L106 233L106 267L92 267L92 300L115 300L115 333L183 333L183 367L110 367L110 400L141 400L141 433L102 433L102 467L144 467L144 500L103 500L103 533L129 533L129 567L108 567L108 600L0 600L0 567L0 567L0 533L0 533L0 500L0 500L0 467L0 467L0 433L0 433L0 400L0 400L0 367L0 367L0 333L0 333L0 300L0 300L0 267L0 267L0 233L0 233L0 200L0 200L0 167L0 167L0 133L0 133L0 100L0 100L0 67L0 67L0 33L0 33L0 0L0 0Z" fill="#dc80df"></path><path d="M144 0L128 0L128 33L103 33L103 67L136 67L136 100L139 100L139 133L102 133L102 167L89 167L89 200L140 200L140 233L147 233L147 267L141 267L141 300L77 300L77 333L114 333L114 367L115 367L115 400L100 400L100 433L130 433L130 467L134 467L134 500L94 500L94 533L145 533L145 567L140 567L140 600L0 600L0 567L0 567L0 533L0 533L0 500L0 500L0 467L0 467L0 433L0 433L0 400L0 400L0 367L0 367L0 333L0 333L0 300L0 300L0 267L0 267L0 233L0 233L0 200L0 200L0 167L0 167L0 133L0 133L0 100L0 100L0 67L0 67L0 33L0 33L0 0L0 0Z" fill="#ff64aa"></path><path d="M61 0L109 0L109 33L57 33L57 67L81 67L81 100L86 100L86 133L76 133L76 167L62 167L62 200L98 200L98 233L109 233L109 267L37 267L37 300L94 300L94 333L75 333L75 367L35 367L35 400L50 400L50 433L48 433L48 467L34 467L34 500L107 500L107 533L80 533L80 567L46 567L46 600L0 600L0 567L0 567L0 533L0 533L0 500L0 500L0 467L0 467L0 433L0 433L0 400L0 400L0 367L0 367L0 333L0 333L0 300L0 300L0 267L0 267L0 233L0 233L0 200L0 200L0 167L0 167L0 133L0 133L0 100L0 100L0 67L0 67L0 33L0 33L0 0L0 0Z" fill="#ff5f65"></path><path d="M30 0L75 0L75 33L26 33L26 67L21 67L21 100L6 100L6 133L72 133L72 167L3 167L3 200L30 200L30 233L74 233L74 267L17 267L17 300L77 300L77 333L66 333L66 367L47 367L47 400L28 400L28 433L41 433L41 467L48 467L48 500L26 500L26 533L48 533L48 567L39 567L39 600L0 600L0 567L0 567L0 533L0 533L0 500L0 500L0 467L0 467L0 433L0 433L0 400L0 400L0 367L0 367L0 333L0 333L0 300L0 300L0 267L0 267L0 233L0 233L0 200L0 200L0 167L0 167L0 133L0 133L0 100L0 100L0 67L0 67L0 33L0 33L0 0L0 0Z" fill="#f7770f"></path></svg>