<svg id="visual" viewBox="0 0 900 600" width="900" height="600" xmlns="http://www.w3.org/2000/svg" xmlns:xlink="http://www.w3.org/1999/xlink" version="1.1"><rect x="0" y="0" width="900" height="600" fill="#ffffff"></rect><path d="M0 87L47 87L47 94L95 94L95 97L142 97L142 145L189 145L189 82L237 82L237 151L284 151L284 106L332 106L332 110L379 110L379 161L426 161L426 125L474 125L474 92L521 92L521 98L568 98L568 97L616 97L616 123L663 123L663 148L711 148L711 155L758 155L758 88L805 88L805 88L853 88L853 95L900 95L900 90L900 0L900 0L853 0L853 0L805 0L805 0L758 0L758 0L711 0L711 0L663 0L663 0L616 0L616 0L568 0L568 0L521 0L521 0L474 0L474 0L426 0L426 0L379 0L379 0L332 0L332 0L284 0L284 0L237 0L237 0L189 0L189 0L142 0L142 0L95 0L95 0L47 0L47 0L0 0Z" fill="#f7770f"></path><path d="M0 77L47 77L47 117L95 117L95 101L142 101L142 67L189 67L189 69L237 69L237 119L284 119L284 85L332 85L332 103L379 103L379 109L426 109L426 94L474 94L474 90L521 90L521 88L568 88L568 89L616 89L616 68L663 68L663 58L711 58L711 105L758 105L758 103L805 103L805 81L853 81L853 68L900 68L900 95L900 0L900 0L853 0L853 0L805 0L805 0L758 0L758 0L711 0L711 0L663 0L663 0L616 0L616 0L568 0L568 0L521 0L521 0L474 0L474 0L426 0L426 0L379 0L379 0L332 0L332 0L284 0L284 0L237 0L237 0L189 0L189 0L142 0L142 0L95 0L95 0L47 0L47 0L0 0Z" fill="#ff5f9d"></path><path d="M0 62L47 62L47 39L95 39L95 46L142 46L142 48L189 48L189 76L237 76L237 42L284 42L284 47L332 47L332 58L379 58L379 88L426 88L426 61L474 61L474 91L521 91L521 65L568 65L568 81L616 81L616 53L663 53L663 41L711 41L711 87L758 87L758 90L805 90L805 49L853 49L853 54L900 54L900 65L900 0L900 0L853 0L853 0L805 0L805 0L758 0L758 0L711 0L711 0L663 0L663 0L616 0L616 0L568 0L568 0L521 0L521 0L474 0L474 0L426 0L426 0L379 0L379 0L332 0L332 0L284 0L284 0L237 0L237 0L189 0L189 0L142 0L142 0L95 0L95 0L47 0L47 0L0 0Z" fill="#b48ff5"></path><path d="M0 43L47 43L47 43L95 43L95 18L142 18L142 31L189 31L189 35L237 35L237 34L284 34L284 10L332 10L332 38L379 38L379 56L426 56L426 10L474 10L474 10L521 10L521 32L568 32L568 44L616 44L616 33L663 33L663 55L711 55L711 29L758 29L758 23L805 23L805 14L853 14L853 49L900 49L900 15L900 0L900 0L853 0L853 0L805 0L805 0L758 0L758 0L711 0L711 0L663 0L663 0L616 0L616 0L568 0L568 0L521 0L521 0L474 0L474 0L426 0L426 0L379 0L379 0L332 0L332 0L284 0L284 0L237 0L237 0L189 0L189 0L142 0L142 0L95 0L95 0L47 0L47 0L0 0Z" fill="#00b0f2"></path></svg>