<svg id="visual" viewBox="0 0 900 600" width="900" height="600" xmlns="http://www.w3.org/2000/svg" xmlns:xlink="http://www.w3.org/1999/xlink" version="1.1"><path d="M120 0L123 0L123 55L145 55L145 109L131 109L131 164L120 164L120 218L101 218L101 273L170 273L170 327L75 327L75 382L177 382L177 436L64 436L64 491L89 491L89 545L130 545L130 600L0 600L0 545L0 545L0 491L0 491L0 436L0 436L0 382L0 382L0 327L0 327L0 273L0 273L0 218L0 218L0 164L0 164L0 109L0 109L0 55L0 55L0 0L0 0Z" fill="#0bb0f2"></path><path d="M132 0L117 0L117 55L24 55L24 109L80 109L80 164L55 164L55 218L79 218L79 273L32 273L32 327L64 327L64 382L68 382L68 436L110 436L110 491L93 491L93 545L123 545L123 600L0 600L0 545L0 545L0 491L0 491L0 436L0 436L0 382L0 382L0 327L0 327L0 273L0 273L0 218L0 218L0 164L0 164L0 109L0 109L0 55L0 55L0 0L0 0Z" fill="#ec75d2"></path><path d="M56 0L78 0L78 55L75 55L75 109L12 109L12 164L15 164L15 218L68 218L68 273L55 273L55 327L2 327L2 382L37 382L37 436L3 436L3 491L91 491L91 545L12 545L12 600L0 600L0 545L0 545L0 491L0 491L0 436L0 436L0 382L0 382L0 327L0 327L0 273L0 273L0 218L0 218L0 164L0 164L0 109L0 109L0 55L0 55L0 0L0 0Z" fill="#f7770f"></path></svg>