<svg id="visual" viewBox="0 0 900 600" width="900" height="600" xmlns="http://www.w3.org/2000/svg" xmlns:xlink="http://www.w3.org/1999/xlink" version="1.1"><rect x="0" y="0" width="900" height="600" fill="#ffffff"></rect><path d="M0 498L47 498L47 454L95 454L95 504L142 504L142 471L189 471L189 490L237 490L237 439L284 439L284 478L332 478L332 450L379 450L379 459L426 459L426 455L474 455L474 466L521 466L521 508L568 508L568 443L616 443L616 502L663 502L663 471L711 471L711 477L758 477L758 499L805 499L805 502L853 502L853 473L900 473L900 494L900 601L900 601L853 601L853 601L805 601L805 601L758 601L758 601L711 601L711 601L663 601L663 601L616 601L616 601L568 601L568 601L521 601L521 601L474 601L474 601L426 601L426 601L379 601L379 601L332 601L332 601L284 601L284 601L237 601L237 601L189 601L189 601L142 601L142 601L95 601L95 601L47 601L47 601L0 601Z" fill="#f7770f"></path><path d="M0 529L47 529L47 520L95 520L95 500L142 500L142 538L189 538L189 530L237 530L237 482L284 482L284 537L332 537L332 529L379 529L379 498L426 498L426 540L474 540L474 520L521 520L521 534L568 534L568 473L616 473L616 501L663 501L663 529L711 529L711 492L758 492L758 537L805 537L805 516L853 516L853 475L900 475L900 495L900 601L900 601L853 601L853 601L805 601L805 601L758 601L758 601L711 601L711 601L663 601L663 601L616 601L616 601L568 601L568 601L521 601L521 601L474 601L474 601L426 601L426 601L379 601L379 601L332 601L332 601L284 601L284 601L237 601L237 601L189 601L189 601L142 601L142 601L95 601L95 601L47 601L47 601L0 601Z" fill="#ff5f9d"></path><path d="M0 519L47 519L47 555L95 555L95 548L142 548L142 507L189 507L189 547L237 547L237 532L284 532L284 558L332 558L332 558L379 558L379 522L426 522L426 519L474 519L474 548L521 548L521 556L568 556L568 548L616 548L616 523L663 523L663 544L711 544L711 543L758 543L758 548L805 548L805 535L853 535L853 542L900 542L900 531L900 601L900 601L853 601L853 601L805 601L805 601L758 601L758 601L711 601L711 601L663 601L663 601L616 601L616 601L568 601L568 601L521 601L521 601L474 601L474 601L426 601L426 601L379 601L379 601L332 601L332 601L284 601L284 601L237 601L237 601L189 601L189 601L142 601L142 601L95 601L95 601L47 601L47 601L0 601Z" fill="#b48ff5"></path><path d="M0 576L47 576L47 538L95 538L95 584L142 584L142 538L189 538L189 555L237 555L237 571L284 571L284 575L332 575L332 583L379 583L379 575L426 575L426 540L474 540L474 574L521 574L521 547L568 547L568 552L616 552L616 539L663 539L663 579L711 579L711 579L758 579L758 562L805 562L805 545L853 545L853 585L900 585L900 572L900 601L900 601L853 601L853 601L805 601L805 601L758 601L758 601L711 601L711 601L663 601L663 601L616 601L616 601L568 601L568 601L521 601L521 601L474 601L474 601L426 601L426 601L379 601L379 601L332 601L332 601L284 601L284 601L237 601L237 601L189 601L189 601L142 601L142 601L95 601L95 601L47 601L47 601L0 601Z" fill="#00b0f2"></path></svg>