<svg id="visual" viewBox="0 0 900 600" width="900" height="600" xmlns="http://www.w3.org/2000/svg" xmlns:xlink="http://www.w3.org/1999/xlink" version="1.1"><path d="M360 0L339 0L339 35L153 35L153 71L286 71L286 106L200 106L200 141L243 141L243 176L144 176L144 212L121 212L121 247L330 247L330 282L262 282L262 318L294 318L294 353L233 353L233 388L355 388L355 424L185 424L185 459L141 459L141 494L140 494L140 529L257 529L257 565L121 565L121 600L0 600L0 565L0 565L0 529L0 529L0 494L0 494L0 459L0 459L0 424L0 424L0 388L0 388L0 353L0 353L0 318L0 318L0 282L0 282L0 247L0 247L0 212L0 212L0 176L0 176L0 141L0 141L0 106L0 106L0 71L0 71L0 35L0 35L0 0L0 0Z" fill="#0bb0f2"></path><path d="M152 0L86 0L86 35L198 35L198 71L189 71L189 106L123 106L123 141L179 141L179 176L175 176L175 212L190 212L190 247L119 247L119 282L102 282L102 318L183 318L183 353L114 353L114 388L265 388L265 424L260 424L260 459L253 459L253 494L52 494L52 529L180 529L180 565L79 565L79 600L0 600L0 565L0 565L0 529L0 529L0 494L0 494L0 459L0 459L0 424L0 424L0 388L0 388L0 353L0 353L0 318L0 318L0 282L0 282L0 247L0 247L0 212L0 212L0 176L0 176L0 141L0 141L0 106L0 106L0 71L0 71L0 35L0 35L0 0L0 0Z" fill="#ec75d2"></path><path d="M139 0L9 0L9 35L77 35L77 71L50 71L50 106L75 106L75 141L96 141L96 176L91 176L91 212L81 212L81 247L56 247L56 282L53 282L53 318L11 318L11 353L130 353L130 388L136 388L136 424L171 424L171 459L120 459L120 494L34 494L34 529L123 529L123 565L58 565L58 600L0 600L0 565L0 565L0 529L0 529L0 494L0 494L0 459L0 459L0 424L0 424L0 388L0 388L0 353L0 353L0 318L0 318L0 282L0 282L0 247L0 247L0 212L0 212L0 176L0 176L0 141L0 141L0 106L0 106L0 71L0 71L0 35L0 35L0 0L0 0Z" fill="#f7770f"></path></svg>