<svg xmlns="http://www.w3.org/2000/svg" width="270.273" height="70.487" viewBox="0 0 270.273 70.487">
  <g id="Layer_2" data-name="Layer 2" transform="translate(306 -214)">
    <g id="ART" transform="translate(-306 214)">
      <path id="Path_74" data-name="Path 74" d="M221.227,102.213h9.037v21.646h5.129V102.213h31.271V97.57H218.62Z" transform="translate(-155.843 -69.553)"/>
      <path id="Path_75" data-name="Path 75" d="M403.9,101.473a14.475,14.475,0,0,1,7.917,2.266l2.737-3.607-.431-.313A17.8,17.8,0,0,0,403.9,96.83c-8.218,0-14.18,5.614-14.18,13.35s5.961,13.353,14.18,13.353a17.817,17.817,0,0,0,10.223-2.989l.431-.313-2.737-3.607a14.38,14.38,0,0,1-7.917,2.266c-5.246,0-9.054-3.661-9.054-8.709S398.653,101.473,403.9,101.473Z" transform="translate(-277.811 -69.025)"/>
      <path id="Path_76" data-name="Path 76" d="M503.021,108.358H490.306V97.57H485.18v26.289h5.126V113h12.715v10.857h5.126V97.57h-5.126Z" transform="translate(-345.86 -69.553)"/>
      <path id="Path_77" data-name="Path 77" d="M588.835,96.85A13.36,13.36,0,1,0,602.67,110.2,13.614,13.614,0,0,0,588.835,96.85Zm0,22.059a8.709,8.709,0,1,1,8.709-8.709A8.709,8.709,0,0,1,588.835,118.909Z" transform="translate(-409.888 -69.039)"/>
      <path id="Path_78" data-name="Path 78" d="M687.793,97.57,678.92,117.6,670.277,97.57H664.93l11.34,26.289H681.3l9.585-21.646h23.653V97.57Z" transform="translate(-473.994 -69.553)"/>
      <path id="Path_79" data-name="Path 79" d="M865.483,115.3a9.117,9.117,0,0,0,7.285-8.738c0-4.962-4.345-9-9.686-9H848.15v26.289h5.126v-8.3h5.688l8.787,8.3h7.124Zm-12.207-4.388v-8.7h9.815a4.464,4.464,0,0,1,4.56,4.353,4.393,4.393,0,0,1-4.422,4.35Z" transform="translate(-604.602 -69.553)"/>
      <path id="Path_82" data-name="Path 82" d="M770.056,139.783H783.75V135.14H764.93v15.5h20.893V146H770.056Z" transform="translate(-545.279 -96.334)"/>
      <path id="Path_83" data-name="Path 83" d="M318.3,139.783H331.99V135.14H313.17v15.5h20.893l-2.6-4.643H318.3Z" transform="translate(-223.243 -96.334)"/>
      <path id="Path_84" data-name="Path 84" d="M153.251,0l1.123,11.831-1.732,10.958-5.212-9.123Z" transform="translate(-105.095)"/>
      <path id="Path_85" data-name="Path 85" d="M49.051,90.088l-1.5-10.728L46.519,93.712l-9.3,9.915-2.834,15.236-4.916,2.714-2.892-2.762,2.053-1.5.988-2.5-3.773-1.846-3.773,1.846.988,2.5,2.053,1.5-2.892,2.762L17.3,118.863,14.47,103.627l-9.3-9.915L4.141,79.36l-1.5,10.728L0,93.789l12.448,11.17,3.07,16.348,10.326,5.752,10.326-5.752,3.07-16.348,12.448-11.17Z" transform="translate(0 -56.572)"/>
      <path id="Path_86" data-name="Path 86" d="M9.513,0,8.39,11.831l1.732,10.958,5.212-9.123Z" transform="translate(-5.981)"/>
      <path id="Path_87" data-name="Path 87" d="M32.9,114.6l6.289,3.937,2.254,6.337-.861-12.884-7.337-5.114L26.9,105.46l3.044,2.053Zm5.513-1.74.861,4.258-5.169-3.11-1.625-4.991Z" transform="translate(-19.176 -75.177)"/>
      <path id="Path_88" data-name="Path 88" d="M113.975,107.513l3.044-2.053-6.335,1.416L103.361,112,102.5,124.88l2.24-6.343,6.289-3.943Zm-2.5,1.5-1.625,4.991-5.169,3.11.861-4.258Z" transform="translate(-73.067 -75.177)"/>
    </g>
  </g>
</svg>
