<svg id="visual" viewBox="0 0 900 600" width="900" height="600" xmlns="http://www.w3.org/2000/svg" xmlns:xlink="http://www.w3.org/1999/xlink" version="1.1"><rect x="0" y="0" width="900" height="600" fill="#FFFFFF"></rect><path d="M0 126L21.5 132.5C43 139 86 152 128.8 155.8C171.7 159.7 214.3 154.3 257.2 149.3C300 144.3 343 139.7 385.8 144.2C428.7 148.7 471.3 162.3 514.2 161.3C557 160.3 600 144.7 642.8 143.8C685.7 143 728.3 157 771.2 161.7C814 166.3 857 161.7 878.5 159.3L900 157L900 0L878.5 0C857 0 814 0 771.2 0C728.3 0 685.7 0 642.8 0C600 0 557 0 514.2 0C471.3 0 428.7 0 385.8 0C343 0 300 0 257.2 0C214.3 0 171.7 0 128.8 0C86 0 43 0 21.5 0L0 0Z" fill="#f7770f"></path><path d="M0 159L21.5 150.2C43 141.3 86 123.7 128.8 120.5C171.7 117.3 214.3 128.7 257.2 135.8C300 143 343 146 385.8 140C428.7 134 471.3 119 514.2 115.8C557 112.7 600 121.3 642.8 131.3C685.7 141.3 728.3 152.7 771.2 154.7C814 156.7 857 149.3 878.5 145.7L900 142L900 0L878.5 0C857 0 814 0 771.2 0C728.3 0 685.7 0 642.8 0C600 0 557 0 514.2 0C471.3 0 428.7 0 385.8 0C343 0 300 0 257.2 0C214.3 0 171.7 0 128.8 0C86 0 43 0 21.5 0L0 0Z" fill="#ff5c7e"></path><path d="M0 115L21.5 117C43 119 86 123 128.8 118.8C171.7 114.7 214.3 102.3 257.2 94C300 85.7 343 81.3 385.8 78.8C428.7 76.3 471.3 75.7 514.2 83.2C557 90.7 600 106.3 642.8 113C685.7 119.7 728.3 117.3 771.2 114.8C814 112.3 857 109.7 878.5 108.3L900 107L900 0L878.5 0C857 0 814 0 771.2 0C728.3 0 685.7 0 642.8 0C600 0 557 0 514.2 0C471.3 0 428.7 0 385.8 0C343 0 300 0 257.2 0C214.3 0 171.7 0 128.8 0C86 0 43 0 21.5 0L0 0Z" fill="#ec75d2"></path><path d="M0 87L21.5 86.5C43 86 86 85 128.8 81.8C171.7 78.7 214.3 73.3 257.2 73.5C300 73.7 343 79.3 385.8 79.8C428.7 80.3 471.3 75.7 514.2 76.3C557 77 600 83 642.8 79.8C685.7 76.7 728.3 64.3 771.2 63.8C814 63.3 857 74.7 878.5 80.3L900 86L900 0L878.5 0C857 0 814 0 771.2 0C728.3 0 685.7 0 642.8 0C600 0 557 0 514.2 0C471.3 0 428.7 0 385.8 0C343 0 300 0 257.2 0C214.3 0 171.7 0 128.8 0C86 0 43 0 21.5 0L0 0Z" fill="#939afd"></path><path d="M0 23L21.5 28.8C43 34.7 86 46.3 128.8 49C171.7 51.7 214.3 45.3 257.2 43.3C300 41.3 343 43.7 385.8 41.5C428.7 39.3 471.3 32.7 514.2 30C557 27.3 600 28.7 642.8 30.8C685.7 33 728.3 36 771.2 36.7C814 37.3 857 35.7 878.5 34.8L900 34L900 0L878.5 0C857 0 814 0 771.2 0C728.3 0 685.7 0 642.8 0C600 0 557 0 514.2 0C471.3 0 428.7 0 385.8 0C343 0 300 0 257.2 0C214.3 0 171.7 0 128.8 0C86 0 43 0 21.5 0L0 0Z" fill="#0bb0f2"></path></svg>