<svg id="visual" viewBox="0 0 900 600" width="900" height="600" xmlns="http://www.w3.org/2000/svg" xmlns:xlink="http://www.w3.org/1999/xlink" version="1.1"><rect x="0" y="0" width="900" height="600" fill="#FFFFFF"></rect><path d="M0 535L21.5 531.8C43 528.7 86 522.3 128.8 520.5C171.7 518.7 214.3 521.3 257.2 523.8C300 526.3 343 528.7 385.8 526.5C428.7 524.3 471.3 517.7 514.2 518.2C557 518.7 600 526.3 642.8 526.7C685.7 527 728.3 520 771.2 517.7C814 515.3 857 517.7 878.5 518.8L900 520L900 601L878.5 601C857 601 814 601 771.2 601C728.3 601 685.7 601 642.8 601C600 601 557 601 514.2 601C471.3 601 428.7 601 385.8 601C343 601 300 601 257.2 601C214.3 601 171.7 601 128.8 601C86 601 43 601 21.5 601L0 601Z" fill="#f7770f"></path><path d="M0 519L21.5 523.3C43 527.7 86 536.3 128.8 538C171.7 539.7 214.3 534.3 257.2 530.8C300 527.3 343 525.7 385.8 528.7C428.7 531.7 471.3 539.3 514.2 541C557 542.7 600 538.3 642.8 533.3C685.7 528.3 728.3 522.7 771.2 521.5C814 520.3 857 523.7 878.5 525.3L900 527L900 601L878.5 601C857 601 814 601 771.2 601C728.3 601 685.7 601 642.8 601C600 601 557 601 514.2 601C471.3 601 428.7 601 385.8 601C343 601 300 601 257.2 601C214.3 601 171.7 601 128.8 601C86 601 43 601 21.5 601L0 601Z" fill="#ff5c7e"></path><path d="M0 541L21.5 540C43 539 86 537 128.8 539C171.7 541 214.3 547 257.2 551.2C300 555.3 343 557.7 385.8 559C428.7 560.3 471.3 560.7 514.2 557C557 553.3 600 545.7 642.8 542.3C685.7 539 728.3 540 771.2 541.2C814 542.3 857 543.7 878.5 544.3L900 545L900 601L878.5 601C857 601 814 601 771.2 601C728.3 601 685.7 601 642.8 601C600 601 557 601 514.2 601C471.3 601 428.7 601 385.8 601C343 601 300 601 257.2 601C214.3 601 171.7 601 128.8 601C86 601 43 601 21.5 601L0 601Z" fill="#ec75d2"></path><path d="M0 555L21.5 555.3C43 555.7 86 556.3 128.8 558C171.7 559.7 214.3 562.3 257.2 562.2C300 562 343 559 385.8 558.7C428.7 558.3 471.3 560.7 514.2 560.3C557 560 600 557 642.8 558.7C685.7 560.3 728.3 566.7 771.2 566.8C814 567 857 561 878.5 558L900 555L900 601L878.5 601C857 601 814 601 771.2 601C728.3 601 685.7 601 642.8 601C600 601 557 601 514.2 601C471.3 601 428.7 601 385.8 601C343 601 300 601 257.2 601C214.3 601 171.7 601 128.8 601C86 601 43 601 21.5 601L0 601Z" fill="#939afd"></path><path d="M0 587L21.5 584C43 581 86 575 128.8 573.7C171.7 572.3 214.3 575.7 257.2 576.7C300 577.7 343 576.3 385.8 577.3C428.7 578.3 471.3 581.7 514.2 583C557 584.3 600 583.7 642.8 582.7C685.7 581.7 728.3 580.3 771.2 580C814 579.7 857 580.3 878.5 580.7L900 581L900 601L878.5 601C857 601 814 601 771.2 601C728.3 601 685.7 601 642.8 601C600 601 557 601 514.2 601C471.3 601 428.7 601 385.8 601C343 601 300 601 257.2 601C214.3 601 171.7 601 128.8 601C86 601 43 601 21.5 601L0 601Z" fill="#0bb0f2"></path></svg>