<?xml version="1.0" encoding="UTF-8" standalone="no"?>
<!DOCTYPE svg PUBLIC "-//W3C//DTD SVG 20010904//EN"
              "http://www.w3.org/TR/2001/REC-SVG-20010904/DTD/svg10.dtd">

<svg xmlns="http://www.w3.org/2000/svg"
     width="828.38mm" height="142.24mm"
     viewBox="0 0 9784 1680">
  <path id="Selection"
        fill="#f44336"
        d="M 0.00,1680.00
           C 0.00,1680.00 0.00,586.00 0.00,586.00
             0.00,586.00 0.60,579.00 0.60,579.00
             0.60,579.00 19.00,559.00 19.00,559.00
             19.00,559.00 75.00,503.00 75.00,503.00
             75.00,503.00 303.00,275.00 303.00,275.00
             303.00,275.00 510.00,68.00 510.00,68.00
             510.00,68.00 561.00,17.00 561.00,17.00
             561.00,17.00 579.00,0.60 579.00,0.60
             579.00,0.60 586.00,0.00 586.00,0.00
             586.00,0.00 1679.00,0.00 1679.00,0.00
             1679.00,0.00 1679.00,1094.00 1679.00,1094.00
             1679.00,1094.00 1678.40,1101.00 1678.40,1101.00
             1678.40,1101.00 1660.00,1121.00 1660.00,1121.00
             1660.00,1121.00 1604.00,1177.00 1604.00,1177.00
             1604.00,1177.00 1376.00,1405.00 1376.00,1405.00
             1376.00,1405.00 1169.00,1612.00 1169.00,1612.00
             1169.00,1612.00 1118.00,1663.00 1118.00,1663.00
             1118.00,1663.00 1100.00,1679.40 1100.00,1679.40
             1100.00,1679.40 1093.00,1680.00 1093.00,1680.00
             1093.00,1680.00 0.00,1680.00 0.00,1680.00 Z
           M 1898.00,0.00
           C 1898.00,0.00 3244.00,0.00 3244.00,0.00
             3244.00,0.00 3244.00,372.00 3244.00,372.00
             3244.00,372.00 3243.40,379.00 3243.40,379.00
             3243.40,379.00 3228.00,396.00 3228.00,396.00
             3228.00,396.00 3182.00,442.00 3182.00,442.00
             3182.00,442.00 2993.00,631.00 2993.00,631.00
             2993.00,631.00 2237.00,1387.00 2237.00,1387.00
             2237.00,1387.00 3286.00,1387.00 3286.00,1387.00
             3286.00,1387.00 3286.00,1680.00 3286.00,1680.00
             3286.00,1680.00 1885.00,1680.00 1885.00,1680.00
             1885.00,1680.00 1885.00,1309.00 1885.00,1309.00
             1885.00,1309.00 1885.60,1302.00 1885.60,1302.00
             1885.60,1302.00 1901.00,1285.00 1901.00,1285.00
             1901.00,1285.00 1947.00,1239.00 1947.00,1239.00
             1947.00,1239.00 2136.00,1050.00 2136.00,1050.00
             2136.00,1050.00 2396.00,790.00 2396.00,790.00
             2396.00,790.00 2409.00,776.00 2409.00,776.00
             2409.00,776.00 2892.00,293.00 2892.00,293.00
             2892.00,293.00 1898.00,293.00 1898.00,293.00
             1898.00,293.00 1898.00,0.00 1898.00,0.00 Z
           M 3474.00,0.00
           C 3474.00,0.00 4630.00,0.00 4630.00,0.00
             4630.00,0.00 4630.00,293.00 4630.00,293.00
             4630.00,293.00 3824.00,293.00 3824.00,293.00
             3824.00,293.00 3824.00,672.00 3824.00,672.00
             3824.00,672.00 4615.00,672.00 4615.00,672.00
             4615.00,672.00 4615.00,964.00 4615.00,964.00
             4615.00,964.00 3824.00,964.00 3824.00,964.00
             3824.00,964.00 3824.00,1387.00 3824.00,1387.00
             3824.00,1387.00 4650.00,1387.00 4650.00,1387.00
             4650.00,1387.00 4650.00,1680.00 4650.00,1680.00
             4650.00,1680.00 3474.00,1680.00 3474.00,1680.00
             3474.00,1680.00 3474.00,0.00 3474.00,0.00 Z
           M 4886.00,0.00
           C 4886.00,0.00 5555.00,0.00 5555.00,0.00
             5557.10,0.00 5560.61,-0.25 5562.35,0.99
             5565.08,2.94 5569.04,17.13 5570.33,21.00
             5570.33,21.00 5593.67,90.00 5593.67,90.00
             5593.67,90.00 5693.67,383.00 5693.67,383.00
             5693.67,383.00 5738.00,513.00 5738.00,513.00
             5738.00,513.00 5832.00,789.00 5832.00,789.00
             5832.00,789.00 5972.66,1202.00 5972.66,1202.00
             5972.66,1202.00 6000.34,1284.00 6000.34,1284.00
             6000.34,1284.00 6067.00,1479.00 6067.00,1479.00
             6067.00,1479.00 6097.66,1569.00 6097.66,1569.00
             6097.66,1569.00 6114.00,1616.00 6114.00,1616.00
             6114.00,1616.00 6114.00,0.00 6114.00,0.00
             6114.00,0.00 6462.00,0.00 6462.00,0.00
             6462.00,0.00 6462.00,1680.00 6462.00,1680.00
             6462.00,1680.00 5787.00,1680.00 5787.00,1680.00
             5787.00,1680.00 5778.67,1655.00 5778.67,1655.00
             5778.67,1655.00 5757.00,1592.00 5757.00,1592.00
             5757.00,1592.00 5691.00,1399.00 5691.00,1399.00
             5691.00,1399.00 5559.34,1014.00 5559.34,1014.00
             5559.34,1014.00 5493.34,821.00 5493.34,821.00
             5493.34,821.00 5430.66,637.00 5430.66,637.00
             5430.66,637.00 5321.00,317.00 5321.00,317.00
             5321.00,317.00 5268.00,162.00 5268.00,162.00
             5268.00,162.00 5243.05,89.00 5243.05,89.00
             5243.05,89.00 5234.00,63.00 5234.00,63.00
             5234.00,63.00 5234.00,1680.00 5234.00,1680.00
             5234.00,1680.00 4886.00,1680.00 4886.00,1680.00
             4886.00,1680.00 4886.00,0.00 4886.00,0.00 Z
           M 6715.00,0.00
           C 6715.00,0.00 7206.00,0.00 7206.00,0.00
             7206.00,0.00 7344.00,0.00 7344.00,0.00
             7344.00,0.00 7359.00,1.00 7359.00,1.00
             7359.00,1.00 7382.00,1.00 7382.00,1.00
             7382.00,1.00 7394.00,1.96 7394.00,1.96
             7394.00,1.96 7405.00,1.96 7405.00,1.96
             7405.00,1.96 7431.00,3.91 7431.00,3.91
             7431.00,3.91 7515.00,12.87 7515.00,12.87
             7633.91,29.42 7759.10,69.46 7860.00,135.34
             7906.20,165.51 7949.25,200.58 7986.91,241.00
             8091.77,353.55 8149.21,494.80 8174.08,645.00
             8174.08,645.00 8182.83,709.00 8182.83,709.00
             8182.83,709.00 8185.17,737.00 8185.17,737.00
             8185.17,737.00 8187.00,763.00 8187.00,763.00
             8187.00,763.00 8187.96,774.00 8187.96,774.00
             8187.96,774.00 8187.96,786.00 8187.96,786.00
             8187.96,786.00 8189.00,802.00 8189.00,802.00
             8189.00,802.00 8189.00,878.00 8189.00,878.00
             8189.00,878.00 8188.00,893.00 8188.00,893.00
             8188.00,893.00 8187.00,920.00 8187.00,920.00
             8187.00,920.00 8186.09,930.00 8186.09,930.00
             8186.09,930.00 8184.17,955.00 8184.17,955.00
             8181.05,987.24 8177.18,1019.07 8171.42,1051.00
             8149.65,1171.71 8104.92,1289.90 8030.12,1388.00
             8015.70,1406.91 8000.28,1424.62 7984.09,1442.00
             7984.09,1442.00 7966.00,1460.99 7966.00,1460.99
             7922.09,1503.83 7871.61,1540.38 7818.00,1570.14
             7707.88,1631.27 7583.65,1662.10 7459.00,1674.17
             7459.00,1674.17 7422.00,1677.09 7422.00,1677.09
             7422.00,1677.09 7411.00,1678.00 7411.00,1678.00
             7411.00,1678.00 7382.00,1679.00 7382.00,1679.00
             7382.00,1679.00 7365.00,1680.00 7365.00,1680.00
             7365.00,1680.00 7208.00,1680.00 7208.00,1680.00
             7208.00,1680.00 6715.00,1680.00 6715.00,1680.00
             6715.00,1680.00 6715.00,0.00 6715.00,0.00 Z
           M 8365.00,0.00
           C 8365.00,0.00 8922.00,0.00 8922.00,0.00
             8922.00,0.00 9043.00,0.00 9043.00,0.00
             9043.00,0.00 9058.00,1.00 9058.00,1.00
             9149.03,1.14 9252.13,17.75 9338.00,48.31
             9390.25,66.90 9444.25,92.95 9489.00,125.88
             9557.95,176.63 9608.84,234.91 9644.69,313.00
             9662.47,351.71 9674.37,393.05 9681.41,435.00
             9681.41,435.00 9687.09,482.00 9687.09,482.00
             9687.09,482.00 9688.00,492.00 9688.00,492.00
             9688.00,492.00 9689.00,513.00 9689.00,513.00
             9689.00,513.00 9689.00,545.00 9689.00,545.00
             9689.00,545.00 9688.00,560.00 9688.00,560.00
             9688.00,560.00 9685.16,596.00 9685.16,596.00
             9678.61,657.24 9660.01,718.79 9630.69,773.00
             9601.62,826.76 9563.91,871.38 9517.00,910.41
             9485.99,936.22 9450.09,959.20 9414.00,977.25
             9404.82,981.84 9377.70,994.96 9369.00,997.00
             9369.00,997.00 9395.42,1040.00 9395.42,1040.00
             9395.42,1040.00 9453.81,1136.00 9453.81,1136.00
             9453.81,1136.00 9627.81,1422.00 9627.81,1422.00
             9627.81,1422.00 9729.42,1589.00 9729.42,1589.00
             9729.42,1589.00 9766.00,1649.00 9766.00,1649.00
             9766.00,1649.00 9784.00,1680.00 9784.00,1680.00
             9784.00,1680.00 9393.00,1680.00 9393.00,1680.00
             9390.72,1680.00 9387.35,1680.22 9385.39,1678.98
             9382.77,1677.32 9375.49,1663.53 9373.40,1660.00
             9373.40,1660.00 9336.72,1597.00 9336.72,1597.00
             9336.72,1597.00 9275.42,1492.00 9275.42,1492.00
             9275.42,1492.00 9183.99,1335.00 9183.99,1335.00
             9183.99,1335.00 9107.58,1204.00 9107.58,1204.00
             9107.58,1204.00 9059.72,1122.00 9059.72,1122.00
             9059.72,1122.00 9030.60,1072.00 9030.60,1072.00
             9028.12,1067.82 9023.21,1057.32 9018.91,1055.60
             9017.12,1054.88 9013.97,1055.00 9012.00,1055.00
             9012.00,1055.00 8715.00,1055.00 8715.00,1055.00
             8715.00,1055.00 8715.00,1680.00 8715.00,1680.00
             8715.00,1680.00 8365.00,1680.00 8365.00,1680.00
             8365.00,1680.00 8365.00,0.00 8365.00,0.00 Z
           M 1596.00,84.00
           C 1596.00,84.00 621.00,84.00 621.00,84.00
             609.78,84.02 607.72,89.28 600.00,97.00
             600.00,97.00 567.00,130.00 567.00,130.00
             567.00,130.00 469.00,228.00 469.00,228.00
             469.00,228.00 438.00,259.00 438.00,259.00
             432.56,264.44 424.27,272.03 420.00,278.00
             420.00,278.00 1402.00,278.00 1402.00,278.00
             1402.00,278.00 1402.00,1260.00 1402.00,1260.00
             1407.97,1255.73 1415.56,1247.44 1421.00,1242.00
             1421.00,1242.00 1452.00,1211.00 1452.00,1211.00
             1452.00,1211.00 1550.00,1113.00 1550.00,1113.00
             1550.00,1113.00 1583.00,1080.00 1583.00,1080.00
             1590.72,1072.28 1595.98,1070.22 1596.00,1059.00
             1596.00,1059.00 1596.00,84.00 1596.00,84.00 Z
           M 7065.00,1387.00
           C 7065.00,1387.00 7279.00,1387.00 7279.00,1387.00
             7279.00,1387.00 7372.00,1387.00 7372.00,1387.00
             7372.00,1387.00 7384.00,1386.09 7384.00,1386.09
             7384.00,1386.09 7434.00,1381.27 7434.00,1381.27
             7500.71,1371.65 7566.25,1350.71 7623.00,1313.66
             7644.66,1299.52 7671.17,1278.60 7688.96,1260.00
             7769.75,1175.57 7807.50,1067.08 7821.72,953.00
             7821.72,953.00 7826.04,904.00 7826.04,904.00
             7826.04,904.00 7827.00,892.00 7827.00,892.00
             7827.00,892.00 7828.00,871.00 7828.00,871.00
             7828.00,871.00 7828.00,810.00 7828.00,810.00
             7828.00,810.00 7827.00,793.00 7827.00,793.00
             7827.00,793.00 7826.09,778.00 7826.09,778.00
             7826.09,778.00 7823.16,742.00 7823.16,742.00
             7817.46,688.70 7806.37,632.23 7787.42,582.00
             7756.67,500.46 7711.27,431.14 7640.00,379.15
             7583.11,337.65 7518.15,313.19 7449.00,301.59
             7425.33,297.62 7400.99,294.28 7377.00,294.00
             7377.00,294.00 7362.00,293.00 7362.00,293.00
             7362.00,293.00 7273.00,293.00 7273.00,293.00
             7273.00,293.00 7065.00,293.00 7065.00,293.00
             7065.00,293.00 7065.00,1387.00 7065.00,1387.00 Z
           M 8715.00,762.00
           C 8715.00,762.00 9064.00,762.00 9064.00,762.00
             9064.00,762.00 9076.00,761.09 9076.00,761.09
             9076.00,761.09 9113.00,757.27 9113.00,757.27
             9169.68,749.10 9230.12,726.49 9270.72,684.83
             9302.62,652.09 9320.91,611.97 9327.57,567.00
             9330.12,549.79 9330.03,535.23 9330.00,518.00
             9330.00,518.00 9329.09,506.00 9329.09,506.00
             9327.28,480.09 9321.55,453.72 9310.69,430.00
             9295.63,397.12 9277.41,374.24 9249.00,351.80
             9206.36,318.12 9148.36,301.54 9095.00,295.84
             9095.00,295.84 9069.00,293.91 9069.00,293.91
             9069.00,293.91 9057.00,293.00 9057.00,293.00
             9057.00,293.00 8998.00,293.00 8998.00,293.00
             8998.00,293.00 8715.00,293.00 8715.00,293.00
             8715.00,293.00 8715.00,762.00 8715.00,762.00 Z
           M 1319.00,361.00
           C 1319.00,361.00 360.00,361.00 360.00,361.00
             360.00,361.00 360.00,1319.00 360.00,1319.00
             360.00,1319.00 1319.00,1319.00 1319.00,1319.00
             1319.00,1319.00 1319.00,361.00 1319.00,361.00 Z
           M 277.00,421.00
           C 271.03,425.27 263.44,433.56 258.00,439.00
             258.00,439.00 227.00,470.00 227.00,470.00
             227.00,470.00 129.00,568.00 129.00,568.00
             129.00,568.00 96.00,601.00 96.00,601.00
             88.28,608.72 83.02,610.78 83.00,622.00
             83.00,622.00 83.00,1596.00 83.00,1596.00
             83.00,1596.00 1059.00,1596.00 1059.00,1596.00
             1070.22,1595.98 1072.28,1590.72 1080.00,1583.00
             1080.00,1583.00 1113.00,1550.00 1113.00,1550.00
             1113.00,1550.00 1210.00,1453.00 1210.00,1453.00
             1210.00,1453.00 1241.00,1422.00 1241.00,1422.00
             1246.44,1416.56 1254.73,1408.97 1259.00,1403.00
             1259.00,1403.00 277.00,1403.00 277.00,1403.00
             277.00,1403.00 277.00,421.00 277.00,421.00 Z" />
</svg>
